<?xml version="1.0" standalone="no"?>
<!DOCTYPE svg PUBLIC "-//W3C//DTD SVG 20010904//EN"
 "http://www.w3.org/TR/2001/REC-SVG-20010904/DTD/svg10.dtd">
<svg version="1.0" xmlns="http://www.w3.org/2000/svg"
 width="512.000000pt" height="512.000000pt" viewBox="0 0 512.000000 512.000000"
 preserveAspectRatio="xMidYMid meet">
<metadata>
Created by potrace 1.16, written by Peter Selinger 2001-2019
</metadata>
<g transform="translate(0.000000,512.000000) scale(0.100000,-0.100000)"
fill="#000000" stroke="none">
<path d="M2530 3709 c-25 -4 -65 -8 -89 -8 -65 -1 -215 -66 -267 -115 -7 -6
-26 -22 -43 -36 -17 -14 -31 -28 -31 -32 0 -5 -17 -25 -38 -46 -46 -43 -82
-94 -82 -114 0 -7 -9 -19 -20 -26 -11 -7 -20 -19 -20 -27 0 -20 -11 -19 -78 8
-82 34 -259 53 -338 37 -32 -7 -71 -21 -86 -31 -14 -11 -29 -19 -32 -19 -30 0
-186 -140 -186 -167 0 -6 -9 -27 -19 -45 -49 -86 -71 -290 -37 -355 9 -18 16
-41 16 -51 0 -11 9 -31 20 -45 11 -14 20 -29 20 -34 0 -4 13 -21 28 -38 15
-16 36 -43 46 -60 19 -31 38 -53 68 -83 10 -9 18 -22 18 -28 0 -7 4 -14 8 -16
5 -1 28 -29 51 -61 24 -31 47 -57 52 -57 5 0 9 -6 9 -13 0 -15 121 -107 141
-107 8 0 38 -18 67 -40 29 -22 54 -40 57 -40 8 0 52 -48 58 -64 4 -9 11 -16
16 -16 6 0 15 -18 21 -39 5 -21 17 -42 25 -45 8 -3 15 -12 15 -21 0 -8 4 -15
8 -15 5 0 37 -27 70 -60 34 -33 66 -60 72 -60 5 0 10 -4 10 -8 0 -5 16 -16 35
-25 20 -9 38 -24 41 -32 4 -8 10 -15 15 -15 8 0 112 -71 144 -98 21 -17 211
-118 250 -132 197 -71 341 -68 503 11 115 57 152 96 208 222 9 20 21 37 25 37
11 0 42 60 35 68 -3 3 -1 11 5 18 8 9 23 7 72 -13 51 -21 80 -25 162 -27 148
-2 202 21 323 138 96 93 121 132 148 234 17 63 18 113 3 184 -15 78 -37 112
-106 170 -35 28 -63 55 -63 59 0 4 -9 10 -19 14 -11 3 -55 42 -98 87 -43 44
-88 90 -100 103 -13 12 -23 27 -23 34 0 6 -4 11 -8 11 -4 0 -15 12 -24 28 -9
15 -60 72 -112 126 -53 55 -96 102 -96 104 0 2 -13 22 -29 45 -51 75 -108 182
-205 386 -17 38 -88 103 -142 133 -125 67 -173 89 -227 103 -62 16 -172 18
-247 4z m245 -79 c77 -10 99 -17 160 -55 22 -14 54 -32 71 -40 64 -32 95 -80
199 -298 15 -31 32 -60 36 -63 5 -3 16 -20 24 -37 17 -37 34 -65 53 -85 7 -8
19 -27 27 -43 9 -16 20 -29 25 -29 6 0 10 -7 10 -15 0 -8 9 -19 20 -25 11 -6
20 -14 20 -19 0 -4 15 -25 34 -47 113 -129 146 -170 146 -181 0 -13 39 -54
116 -121 27 -24 56 -50 65 -58 9 -8 19 -14 23 -14 20 0 47 -43 56 -91 14 -70
3 -229 -20 -294 -10 -27 -21 -66 -24 -86 -4 -21 -13 -42 -21 -49 -8 -7 -15
-18 -15 -24 0 -6 -27 -38 -59 -70 -44 -43 -74 -63 -116 -78 -54 -18 -58 -18
-113 -1 -31 9 -73 30 -92 45 -19 15 -38 28 -43 28 -5 0 -22 14 -37 30 -15 17
-32 30 -37 30 -4 0 -28 16 -52 35 -55 44 -81 46 -81 6 0 -17 4 -32 9 -35 5 -3
20 -30 35 -59 27 -56 35 -130 15 -143 -6 -3 -9 -17 -6 -31 7 -38 -29 -119 -71
-161 -42 -42 -139 -93 -212 -112 -66 -18 -184 -15 -249 5 -75 24 -262 104
-282 121 -8 8 -19 14 -24 14 -11 0 -92 67 -142 117 -22 24 -50 43 -61 43 -11
0 -22 9 -25 20 -3 13 -14 20 -29 20 -14 0 -34 11 -46 25 -12 14 -28 25 -34 26
-15 0 -65 55 -147 160 -33 42 -77 90 -98 105 -21 16 -40 31 -43 34 -7 7 -39
27 -82 50 -21 11 -38 25 -38 30 0 6 -7 10 -15 10 -8 0 -19 9 -25 20 -6 11 -17
20 -25 20 -8 0 -15 4 -15 9 0 5 -7 17 -17 26 -9 9 -26 30 -37 45 -12 16 -55
71 -97 122 -85 104 -110 149 -146 258 -29 87 -27 156 8 256 21 61 65 134 80
134 5 0 9 9 9 19 0 11 11 32 25 47 14 15 25 30 25 33 0 3 22 16 49 29 84 38
157 30 351 -40 198 -71 280 -118 336 -193 21 -27 51 -67 66 -88 16 -20 27 -41
24 -46 -3 -5 3 -11 13 -14 20 -5 71 -93 71 -121 0 -8 8 -23 19 -33 10 -10 22
-33 26 -52 4 -18 21 -47 37 -65 23 -24 26 -32 15 -34 -17 -4 -97 46 -97 59 0
5 -4 9 -9 9 -12 0 -145 99 -149 111 -2 5 -10 9 -17 9 -8 0 -18 6 -22 13 -4 8
-42 30 -83 51 -41 20 -88 46 -105 56 -30 20 -75 42 -173 86 -111 50 -186 52
-273 7 -71 -37 -79 -50 -86 -145 -5 -72 -2 -93 17 -148 40 -110 86 -167 172
-211 32 -16 70 -29 85 -29 15 0 53 -8 83 -16 55 -17 208 -34 223 -26 21 10
-15 23 -94 32 -46 6 -96 13 -111 16 -32 6 -138 104 -138 127 0 8 -6 17 -14 20
-7 3 -16 19 -19 35 -3 17 -24 50 -47 74 -22 23 -45 60 -50 80 -6 20 -17 49
-25 65 -20 39 -19 45 15 83 30 34 31 34 118 34 85 0 89 -1 192 -54 58 -29 106
-57 108 -62 2 -4 10 -8 17 -8 8 0 19 -9 25 -20 6 -11 17 -20 25 -20 8 0 15 -4
15 -8 0 -5 16 -17 35 -28 19 -10 50 -40 67 -66 18 -26 39 -48 46 -48 6 0 21
-9 31 -19 10 -10 28 -22 39 -25 11 -4 22 -16 25 -26 3 -12 14 -20 26 -20 11 0
30 -13 42 -29 13 -17 28 -27 38 -24 9 2 35 -10 59 -26 23 -17 46 -31 51 -31
17 0 89 -67 148 -136 31 -38 60 -71 63 -74 14 -13 62 -92 94 -155 23 -45 39
-90 43 -126 5 -49 3 -58 -17 -77 -17 -16 -21 -28 -18 -54 7 -44 -34 -108 -68
-108 -13 0 -24 4 -24 9 0 5 -18 16 -39 24 -22 9 -42 21 -45 26 -4 5 -20 17
-36 25 -17 9 -43 23 -58 31 -15 8 -55 39 -89 70 -63 57 -93 69 -93 37 0 -19
71 -87 190 -182 67 -54 173 -110 209 -110 28 0 137 109 144 146 3 16 9 41 12
56 4 16 -1 54 -13 95 -10 37 -24 86 -30 108 -10 40 -14 54 -47 150 -10 28 -21
70 -24 95 -9 56 -23 82 -56 104 -14 9 -25 21 -25 27 0 6 -10 24 -22 39 -13 15
-30 38 -38 51 -8 13 -28 36 -45 51 -16 15 -34 33 -40 39 -5 6 -38 40 -72 75
-35 35 -63 68 -63 72 0 5 -9 19 -20 32 -12 13 -20 37 -20 57 0 19 -9 51 -19
71 -33 63 -61 129 -61 141 0 11 -48 91 -61 101 -21 17 -99 206 -99 241 0 21
14 36 73 77 39 28 77 55 82 60 23 18 104 55 150 69 190 54 239 60 370 43z"/>
<path d="M2940 2503 c-8 -4 -21 -14 -28 -25 -7 -10 -19 -18 -26 -18 -8 0 -17
-7 -20 -16 -9 -23 -8 -24 14 -24 11 0 20 -7 20 -15 0 -8 4 -15 9 -15 5 0 14 7
21 15 13 16 50 21 50 7 0 -4 26 -9 57 -10 31 -1 62 -7 68 -12 11 -9 109 -5
126 5 13 8 103 -19 117 -35 9 -10 15 -11 18 -4 15 35 29 41 84 35 l55 -7 -36
-16 c-48 -21 -77 -26 -184 -33 -113 -7 -140 -14 -125 -29 18 -18 165 -11 272
13 54 11 121 21 150 21 51 0 118 31 118 54 0 5 18 24 40 43 43 37 56 72 20 53
-11 -6 -20 -8 -20 -4 0 3 -11 -1 -25 -10 -18 -12 -49 -16 -119 -16 -52 0 -97
4 -100 9 -3 5 -27 9 -53 9 -27 0 -59 3 -73 6 -71 16 -91 16 -145 2 -55 -14
-61 -14 -72 1 -10 13 -15 14 -27 4 -8 -7 -20 -10 -27 -6 -6 4 -22 1 -36 -6
-22 -12 -27 -11 -37 2 -13 18 -63 31 -86 22z"/>
</g>
</svg>
